HIERARCHY
ROOT Hips
{
	OFFSET 0.00000 0.00000 0.00000
	CHANNELS 6 Xposition Yposition Zposition Zrotation Yrotation Xrotation 
	JOINT LHipJoint
	{
		OFFSET 0 0 0
		CHANNELS 3 Zrotation Yrotation Xrotation
		JOINT LeftHip
		{
			OFFSET 1.55766 -1.60504 1.11378
			CHANNELS 3 Zrotation Yrotation Xrotation
			JOINT LeftKnee
			{
				OFFSET 2.29047 -6.29302 0.00000
				CHANNELS 3 Zrotation Yrotation Xrotation
				JOINT LeftAnkle
				{
					OFFSET 2.52265 -6.93093 0.00000
					CHANNELS 3 Zrotation Yrotation Xrotation
					JOINT LeftToe
					{
						OFFSET 0.17633 -0.48446 2.02656
						CHANNELS 3 Zrotation Yrotation Xrotation
						End Site
						{
							OFFSET 0.00000 -0.00000 1.04989
						}
					}
				}
			}
		}
	}
	JOINT RHipJoint
	{
		OFFSET 0 0 0
		CHANNELS 3 Zrotation Yrotation Xrotation
		JOINT RightHip
		{
			OFFSET -1.48599 -1.60504 1.11378
			CHANNELS 3 Zrotation Yrotation Xrotation
			JOINT RightKnee
			{
				OFFSET -2.27280 -6.24448 0.00000
				CHANNELS 3 Zrotation Yrotation Xrotation
				JOINT RightAnkle
				{
					OFFSET -2.50834 -6.89161 0.00000
					CHANNELS 3 Zrotation Yrotation Xrotation
					JOINT RightToe
					{
						OFFSET -0.26967 -0.74090 2.08741
						CHANNELS 3 Zrotation Yrotation Xrotation
						End Site
						{
							OFFSET -0.00000 -0.00000 1.10614
						}
					}
				}
			}
		}
	}
	JOINT lowerback
	{
		OFFSET 0 0 0
		CHANNELS 3 Zrotation Yrotation Xrotation
		JOINT Chest
		{
			OFFSET 0.06481 2.02437 -0.08472
			CHANNELS 3 Zrotation Yrotation Xrotation
			JOINT Chest2
			{
				OFFSET 0.00015 1.96711 0.18069
				CHANNELS 3 Zrotation Yrotation Xrotation
				JOINT lowerneck
				{
					OFFSET 0 0 0
					CHANNELS 3 Zrotation Yrotation Xrotation
					JOINT Neck
					{
						OFFSET -0.29961 1.68293 -0.13041
						CHANNELS 3 Zrotation Yrotation Xrotation
						JOINT Head
						{
							OFFSET 0.59697 1.61501 -0.14669
							CHANNELS 3 Zrotation Yrotation Xrotation
							End Site
							{
								OFFSET 0.22973 1.74906 -0.10148
							}
						}
					}
				}
				JOINT LeftCollar
				{
					OFFSET 0 0 0
					CHANNELS 3 Zrotation Yrotation Xrotation
					JOINT LeftShoulder
					{
						OFFSET 3.37968 1.02893 0.31147
CHANNELS 3 Zrotation Xrotation Yrotation
						JOINT LeftElbow
						{
OFFSET 0 -5.198070 -0.000000
CHANNELS 3 Zrotation Xrotation Yrotation
							JOINT LeftWrist
							{
OFFSET 0 -3.093700 -0.000000
CHANNELS 3 Zrotation Xrotation Yrotation
								JOINT lhand
								{
									OFFSET 0 0 0
CHANNELS 3 Zrotation Xrotation Yrotation
									JOINT LFingers
									{
OFFSET 0 -0.672630 -0.000000
CHANNELS 3 Zrotation Xrotation Yrotation
										End Site
										{
OFFSET 0 -0.542290 -0.000000
										}
									}
								}
								JOINT LThumb
								{
OFFSET 0 0.000000 0.000000
CHANNELS 3 Zrotation Xrotation Yrotation
									End Site
									{
OFFSET 0 -0.550570 0.550570
									}
								}
							}
						}
					}
				}
				JOINT RightCollar
				{
					OFFSET 0 0 0
					CHANNELS 3 Zrotation Yrotation Xrotation
					JOINT RightShoulder
					{
						OFFSET -3.38254 0.96355 -0.16120
CHANNELS 3 Zrotation Xrotation Yrotation
						JOINT RightElbow
						{
OFFSET 0 -5.452220 -0.000000
CHANNELS 3 Zrotation Xrotation Yrotation
							JOINT RightWrist
							{
OFFSET 0 -3.012840 -0.000000
CHANNELS 3 Zrotation Xrotation Yrotation
								JOINT rhand
								{
									OFFSET 0 0 0
CHANNELS 3 Zrotation Xrotation Yrotation
									JOINT RFingers
									{
OFFSET 0 -0.622300 -0.000000
CHANNELS 3 Zrotation Xrotation Yrotation
										End Site
										{
OFFSET 0 -0.501710 -0.000000
										}
									}
								}
								JOINT RThumb
								{
OFFSET 0 0.000000 0.000000
CHANNELS 3 Zrotation Xrotation Yrotation
									End Site
									{
OFFSET 0 -0.509370 0.509370
									}
								}
							}
						}
					}
				}
			}
		}
	}
}
MOTION
Frames: 12
Frame Time: .0083333
7.1320 15.9516 28.7574 -175.7110 -12.5194 -165.5450 0.0000 0.0000 0.0000 -14.5153 -1.0946 -28.9270 2.9950 10.6869 31.2311 0.9969 -12.6809 -18.6787 1.0668 -6.5663 -18.4366 0.0000 0.0000 0.0000 26.4931 -3.7284 -24.8273 -1.9217 -8.7010 24.8644 -0.4310 19.1553 -16.9463 -0.3999 4.0602 -11.2460 6.4664 6.1129 -14.3389 -1.9867 6.8729 -3.9341 -4.4376 3.2786 4.8290 -25.7731 0.7558 1.1509 39.2155 -5.4347 11.9098 20.0390 -3.7792 4.7627 -0.0000 -0.0000 0.0000 57.6024 22.0397 -109.5278 148.3917 -42.2327 107.5233 59.3317 -99.6733 -12.8048 0.0 0.0 0.0 -7.1250 0.0 0.0 33.1627 50.7593 -5.2011 -0.0000 -0.0000 0.0000 -48.2439 19.7542 99.1893 -148.5982 -42.065 -107.6618 -19.3967 -58.8854 69.7526 0.0 0.0 0.0 7.1250 0.0 -0.0 -166.2474 11.2086 11.1514
7.1337 15.9498 28.7565 -175.6490 -12.4454 -165.5740 0.0000 0.0000 0.0000 -14.4348 -1.1109 -28.8960 2.9998 10.6948 31.2574 1.0087 -12.5575 -18.7401 1.0706 -6.5775 -18.4696 0.0000 0.0000 0.0000 26.5504 -3.6548 -24.7876 -1.9216 -8.7009 24.8641 -0.4311 19.1516 -16.9447 -0.3970 4.0457 -11.2053 6.5112 6.1383 -14.3526 -1.9633 6.8990 -3.9140 -4.4298 3.2936 4.8633 -25.7573 0.7537 1.1400 39.2051 -5.4329 11.9078 20.0274 -3.7760 4.7630 -0.0000 -0.0000 0.0000 57.5687 22.04 -109.4823 148.3817 -42.2408 107.5165 59.3607 -99.6031 -12.8412 0.0 0.0 0.0 -7.1250 0.0 0.0 33.2300 50.8242 -5.2712 -0.0000 -0.0000 0.0000 -48.2651 19.7207 99.1964 -148.6036 -42.0606 -107.6655 -19.6287 -58.6934 69.5799 0.0 0.0 0.0 7.1250 0.0 -0.0 -166.3424 11.0681 11.1102
7.1326 15.9480 28.7537 -175.6220 -12.3629 -165.6120 0.0000 0.0000 0.0000 -14.4160 -1.0874 -28.8302 3.0005 10.6958 31.2608 1.0197 -12.4744 -18.8055 1.0727 -6.5837 -18.4879 0.0000 0.0000 0.0000 26.5725 -3.7357 -24.7833 -1.9239 -8.7058 24.8792 -0.4162 19.3192 -16.9257 -0.3975 4.0481 -11.2119 6.5575 6.1577 -14.3656 -1.9541 6.9180 -3.8906 -4.4392 3.3056 4.9019 -25.7658 0.7585 1.1387 39.2083 -5.4272 11.9104 20.0322 -3.7738 4.7618 0.0000 0.0000 0.0000 57.5417 22.061 -109.4453 148.3826 -42.24 107.5171 59.4219 -99.4067 -12.9454 0.0 0.0 0.0 -7.1250 0.0 0.0 33.3954 51.0023 -5.461 0.0000 0.0000 0.0000 -48.2839 19.7018 99.1988 -148.6073 -42.0577 -107.6679 -19.5033 -58.8437 69.6179 0.0 0.0 0.0 7.1250 0.0 -0.0 -166.3055 11.0919 11.1352
7.1356 15.9479 28.7550 -175.6190 -12.3444 -165.5710 0.0000 0.0000 0.0000 -14.3950 -1.1201 -28.8684 3.0013 10.6972 31.2654 1.0250 -12.4136 -18.8323 1.0848 -6.6195 -18.5930 0.0000 0.0000 0.0000 26.5800 -3.6594 -24.8189 -1.9260 -8.7102 24.8929 -0.4171 19.2934 -16.9185 -0.3916 4.0181 -11.1277 6.5712 6.1757 -14.3325 -1.9865 6.9407 -3.9389 -4.4815 3.3127 4.8412 -25.7209 0.7560 1.1590 39.2237 -5.4500 11.9109 20.0294 -3.7887 4.7660 -0.0000 -0.0000 0.0000 57.6106 22.0589 -109.4901 148.3890 -42.2349 107.5214 59.4527 -99.4145 -12.9377 0.0 0.0 0.0 -7.1250 0.0 0.0 33.4291 51.0013 -5.4668 -0.0000 -0.0000 0.0000 -48.2306 19.7663 99.2148 -148.6000 -42.0636 -107.663 -19.524 -58.8145 69.6672 0.0 0.0 0.0 7.1250 0.0 -0.0 -166.2969 11.1403 11.1286
7.1375 15.9471 28.7550 -175.6060 -12.3013 -165.5560 0.0000 0.0000 0.0000 -14.3743 -1.1214 -28.8753 3.0009 10.6965 31.2631 1.0307 -12.3553 -18.8634 1.0921 -6.6411 -18.6564 0.0000 0.0000 0.0000 26.5941 -3.6267 -24.8428 -1.9289 -8.7165 24.9124 -0.4138 19.3241 -16.9106 -0.3889 4.0044 -11.0891 6.5907 6.1903 -14.3324 -1.9951 6.9566 -3.9504 -4.4986 3.3197 4.8344 -25.7108 0.7529 1.1574 39.2348 -5.4619 11.9118 20.0338 -3.7959 4.7715 -0.0000 0.0000 0.0000 57.6208 22.0619 -109.4816 148.3899 -42.2341 107.522 59.4979 -99.3323 -12.9784 0.0 0.0 0.0 -7.1250 0.0 0.0 33.5221 51.0783 -5.5537 -0.0000 0.0000 0.0000 -48.2155 19.7735 99.2166 -148.5982 -42.065 -107.6618 -19.5211 -58.8299 69.704 0.0 0.0 0.0 7.1250 0.0 -0.0 -166.2868 11.1746 11.1273
7.1396 15.9466 28.7552 -175.5990 -12.2629 -165.5300 0.0000 0.0000 0.0000 -14.3593 -1.1198 -28.8951 2.9999 10.6949 31.2577 1.0353 -12.3094 -18.8883 1.0987 -6.6606 -18.7138 0.0000 0.0000 0.0000 26.6044 -3.5918 -24.8780 -1.9321 -8.7232 24.9332 -0.4104 19.3516 -16.9003 -0.3866 3.9930 -11.0570 6.6024 6.1995 -14.3374 -2.0026 6.9659 -3.9629 -4.5113 3.3232 4.8273 -25.7120 0.7479 1.1500 39.2485 -5.4751 11.9129 20.0432 -3.8039 4.7793 -0.0000 -0.0000 0.0000 57.6232 22.0674 -109.4671 148.3908 -42.2334 107.5227 59.5425 -99.2562 -13.0145 0.0 0.0 0.0 -7.1250 0.0 0.0 33.6107 51.1482 -5.6339 -0.0000 -0.0000 0.0000 -48.2048 19.774 99.2161 -148.5955 -42.0673 -107.66 -19.4933 -58.8706 69.7712 0.0 0.0 0.0 7.1250 0.0 -0.0 -166.2636 11.2352 11.1297
7.1421 15.9463 28.7556 -175.5930 -12.2240 -165.4960 0.0000 0.0000 0.0000 -14.3449 -1.1184 -28.9260 2.9988 10.6931 31.2517 1.0393 -12.2678 -18.9103 1.1038 -6.6756 -18.7578 0.0000 0.0000 0.0000 26.6141 -3.5465 -24.9216 -1.9355 -8.7305 24.9559 -0.4077 19.3713 -16.8913 -0.3852 3.9858 -11.0368 6.6093 6.2064 -14.3466 -2.0073 6.9720 -3.9764 -4.5187 3.3249 4.8202 -25.7270 0.7413 1.1411 39.2660 -5.4893 11.9111 20.0589 -3.8128 4.7877 -0.0000 -0.0000 0.0000 57.6185 22.0731 -109.4463 148.3926 -42.2319 107.5239 59.589 -99.1858 -13.0468 0.0 0.0 0.0 -7.1250 0.0 0.0 33.6990 51.2131 -5.7099 -0.0000 -0.0000 0.0000 -48.1986 19.7677 99.2153 -148.5919 -42.0702 -107.6576 -19.4679 -58.9122 69.836 0.0 0.0 0.0 7.1250 0.0 -0.0 -166.2418 11.2936 11.1314
7.1446 15.9460 28.7559 -175.5890 -12.1821 -165.4610 0.0000 0.0000 0.0000 -14.3336 -1.1137 -28.9569 2.9974 10.6908 31.2440 1.0434 -12.2277 -18.9325 1.1068 -6.6842 -18.7832 0.0000 0.0000 0.0000 26.6225 -3.5077 -24.9699 -1.9393 -8.7385 24.9806 -0.4041 19.4016 -16.8813 -0.3840 3.9796 -11.0193 6.6122 6.2108 -14.3578 -2.0082 6.9750 -3.9877 -4.5203 3.3251 4.8151 -25.7572 0.7326 1.1343 39.2863 -5.5049 11.9039 20.0803 -3.8233 4.7953 -0.0000 0.0000 0.0000 57.6055 22.0812 -109.4179 148.3926 -42.2319 107.5239 59.6251 -99.1345 -13.0742 0.0 0.0 0.0 -7.1250 0.0 0.0 33.7697 51.2668 -5.7726 -0.0000 0.0000 0.0000 -48.2005 19.7546 99.2144 -148.5882 -42.0732 -107.6551 -19.4302 -58.9713 69.8965 0.0 0.0 0.0 7.1250 0.0 -0.0 -166.2175 11.3471 11.1368
7.1473 15.9457 28.7563 -175.5850 -12.1354 -165.4240 0.0000 0.0000 0.0000 -14.3208 -1.1119 -28.9868 2.9957 10.6881 31.2350 1.0478 -12.1819 -18.9567 1.1072 -6.6855 -18.7868 0.0000 0.0000 0.0000 26.6309 -3.4624 -25.0190 -1.9433 -8.7470 25.0069 -0.4011 19.4305 -16.8752 -0.3831 3.9748 -11.0058 6.6147 6.2144 -14.3604 -2.0071 6.9773 -4.0040 -4.5206 3.3245 4.7996 -25.8045 0.7235 1.1413 39.3143 -5.5231 11.8888 20.1110 -3.8375 4.7996 -0.0000 -0.0000 0.0000 57.5894 22.0932 -109.3897 148.3917 -42.2327 107.5233 59.6517 -99.1125 -13.0891 0.0 0.0 0.0 -7.1250 0.0 0.0 33.8176 51.2986 -5.8111 -0.0000 -0.0000 0.0000 -48.2102 19.7442 99.2224 -148.5855 -42.0754 -107.6533 -19.3999 -59.0265 69.9419 0.0 0.0 0.0 7.1250 0.0 -0.0 -166.1994 11.3869 11.1406
7.1502 15.9455 28.7568 -175.5790 -12.0871 -165.3890 0.0000 0.0000 0.0000 -14.3055 -1.1108 -29.0147 2.9939 10.6852 31.2254 1.0525 -12.1340 -18.9829 1.1059 -6.6817 -18.7757 0.0000 0.0000 0.0000 26.6416 -3.4169 -25.0686 -1.9475 -8.7559 25.0347 -0.3983 19.4628 -16.8725 -0.3816 3.9670 -10.9838 6.6190 6.2165 -14.3521 -2.0044 6.9775 -4.0276 -4.5221 3.3220 4.7702 -25.8686 0.7149 1.1743 39.3511 -5.5444 11.8600 20.1510 -3.8570 4.7967 0.0000 -0.0000 0.0000 57.5753 22.115 -109.3662 148.3881 -42.2356 107.5208 59.6564 -99.156 -13.0758 0.0 0.0 0.0 -7.1250 0.0 0.0 33.8124 51.2803 -5.7936 0.0000 -0.0000 0.0000 -48.2258 19.7394 99.2454 -148.5810 -42.0791 -107.6503 -19.3638 -59.0873 69.9661 0.0 0.0 0.0 7.1250 0.0 -0.0 -166.1858 11.4062 11.1466
7.1534 15.9451 28.7573 -175.5710 -12.0362 -165.3540 0.0000 0.0000 0.0000 -14.2871 -1.1044 -29.0431 2.9921 10.6822 31.2154 1.0573 -12.0892 -19.0099 1.1030 -6.6731 -18.7504 0.0000 0.0000 0.0000 26.6533 -3.3547 -25.1107 -1.9519 -8.7652 25.0634 -0.3973 19.4796 -16.8745 -0.3792 3.9549 -10.9498 6.6250 6.2176 -14.3223 -2.0014 6.9771 -4.0632 -4.5269 3.3180 4.7165 -25.9532 0.7044 1.2394 39.4005 -5.5750 11.8153 20.2038 -3.8863 4.7874 0.0000 0.0000 0.0000 57.5693 22.1492 -109.356 148.3872 -42.2363 107.5202 59.6545 -99.2161 -13.0526 0.0 0.0 0.0 -7.1250 0.0 0.0 33.7900 51.2446 -5.757 0.0000 0.0000 0.0000 -48.2473 19.7449 99.2866 -148.5764 -42.0828 -107.6472 -19.3135 -59.1595 69.985 0.0 0.0 0.0 7.1250 0.0 -0.0 -166.1697 11.4194 11.1565
7.1567 15.9448 28.7579 -175.5610 -11.9820 -165.3180 0.0000 0.0000 0.0000 -14.2662 -1.0971 -29.0737 2.9903 10.6793 31.2059 1.0623 -12.0419 -19.0388 1.1008 -6.6668 -18.7318 0.0000 0.0000 0.0000 26.6657 -3.2816 -25.1510 -1.9563 -8.7744 25.0920 -0.3972 19.4894 -16.8787 -0.3760 3.9382 -10.9028 6.6318 6.2174 -14.2882 -1.9967 6.9745 -4.1056 -4.5314 3.3122 4.6530 -26.0618 0.6930 1.3485 39.4643 -5.6126 11.7425 20.2705 -3.9251 4.7652 -0.0000 0.0000 0.0000 57.5655 22.197 -109.3517 148.3844 -42.2386 107.5184 59.6382 -99.303 -13.0179 0.0 0.0 0.0 -7.1250 0.0 0.0 33.7392 51.1866 -5.6945 -0.0000 0.0000 0.0000 -48.2762 19.7528 99.3445 -148.5701 -42.088 -107.643 -19.2618 -59.2324 69.9859 0.0 0.0 0.0 7.1250 0.0 -0.0 -166.1587 11.4153 11.1672
